<svg width="15" height="15" viewBox="0 0 15 15" fill="none" xmlns="http://www.w3.org/2000/svg">
<path fill-rule="evenodd" clip-rule="evenodd" d="M1.63456 6.57707C0.593166 7.61847 0.593167 9.30691 1.63456 10.3483L4.65155 13.3653C5.69295 14.4067 7.38139 14.4067 8.42279 13.3653L14.2963 7.49183C14.5589 7.2292 14.7001 6.86892 14.6858 6.49778L14.5042 1.77675C14.4774 1.08061 13.9193 0.52242 13.2231 0.495645L8.50208 0.314066C8.13094 0.299791 7.77066 0.440974 7.50803 0.703606L1.63456 6.57707ZM11.6007 4.44345C12.2634 4.44345 12.8007 3.90619 12.8007 3.24345C12.8007 2.58071 12.2634 2.04345 11.6007 2.04345C10.938 2.04345 10.4007 2.58071 10.4007 3.24345C10.4007 3.90619 10.938 4.44345 11.6007 4.44345Z" fill="#1A1A1A"/>
</svg>
